<svg xmlns="http://www.w3.org/2000/svg" viewBox="0 0 480 480" width="100" height="100">
  <path d="M24.746 346.221zM22.327 341.18zM20.031 336.094zM17.864 330.98zM303.561 8.525c38.557 10.583 73.23 30.554 101.437 57.281C395.485 64.659 385.822 64 376 64c-124.27 0-226.479 94.448-238.762 215.477l-.009.097-.004.042C168.915 285.105 204.253 288 240 288c41.859 0 82.789-3.922 118.367-11.344 14.039-2.938 27.203-6.406 39.141-10.328 4.195-1.391 8.711.906 10.094 5.109a8.001 8.001 0 01-5.109 10.094c-7.778 2.554-16.087 4.897-24.746 7.059-.101.083-.148.205-.254.285l-15.656 11.742 16.289 4.492a7.994 7.994 0 015.875 7.805 7.989 7.989 0 01-6.063 7.664C337.57 330.672 289.867 336 240 336a8 8 0 01-4.437-14.657c2.563-1.711 2.469-4.25 2.313-5.258-.156-1.016-.844-3.469-3.813-4.313l-43.789-9.68c-.065-.015-.112-.062-.177-.078-18.638-1.396-36.801-3.486-53.936-6.363-.095 2.772-.16 5.552-.16 8.348 0 54.205 18.011 104.173 48.33 144.339 18.574-8.458 37.683-17.042 56.006-16.331 28.82 1.266 43.547-6.867 43.688-6.953 3.828-2.133 8.711-.82 10.891 2.984 2.18 3.813.914 8.656-2.883 10.867-.734.438-18.305 10.547-52.367 9.086-13.441-.686-29.28 6.086-44.936 13.195l.002.002-.004.002a242.15 242.15 0 0016.276 17.003 239.02 239.02 0 01-37.553-7.619.008.008 0 00-.004.002l-.105-.032a238.036 238.036 0 01-5.992-1.816c-1.236-.389-2.461-.801-3.688-1.208-.474-.159-.949-.314-1.421-.475-5.38-1.822-10.685-3.803-15.878-6.005.055.002.115-.003.171-.002-49.475-20.934-90.472-57.971-116.398-104.552C71.109 430.151 149.727 480 240 480c132.548 0 240-107.452 240-240 0-110.542-74.741-203.612-176.439-231.475zM272 232c-.258.016-.68-.008-1.023-.008-11.43 0-18.469 3.594-26.594 7.742-8.633 4.406-18.18 9.281-32.875 9.281-3.891 0-8.133-.344-12.82-1.125-4.359-.727-7.305-4.852-6.578-9.203.719-4.359 4.828-7.352 9.203-6.578 17.211 2.852 25.813-1.531 35.797-6.625 8.938-4.57 18.742-9.945 35.023-9.484 4.414.07 7.938 3.711 7.867 8.133-.07 4.367-3.641 7.867-8 7.867zm62.289-11.055c-7.18 9.141-24.672 10.766-29.859 11.047-.149.008-.289.008-.438.008a7.995 7.995 0 01-7.977-7.563c-.242-4.406 3.133-8.18 7.539-8.422 7.672-.438 16.492-2.844 18.156-4.961a7.993 7.993 0 0111.234-1.344 8.001 8.001 0 011.345 11.235zM205.68 333.601c-1.523 1.516-3.602 2.398-5.68 2.398s-4.164-.883-5.68-2.32c-1.445-1.523-2.32-3.602-2.32-5.68s.875-4.164 2.32-5.68c2.961-2.961 8.32-2.961 11.359 0 1.516 1.516 2.32 3.602 2.32 5.68s-.804 4.157-2.319 5.602zm103.999 40c-1.523 1.516-3.602 2.398-5.68 2.398s-4.164-.883-5.68-2.32c-1.445-1.523-2.32-3.602-2.32-5.68s.875-4.164 2.32-5.68c2.961-2.961 8.32-2.961 11.359 0 1.516 1.516 2.32 3.602 2.32 5.68s-.803 4.157-2.319 5.602zm64-176.099c-1.523 1.516-3.602 2.398-5.68 2.398s-4.164-.883-5.68-2.32c-1.445-1.523-2.32-3.602-2.32-5.68s.875-4.164 2.32-5.68c2.961-2.961 8.32-2.961 11.359 0 1.516 1.516 2.32 3.602 2.32 5.68s-.803 4.157-2.319 5.602zm32 32.099c-1.523 1.516-3.602 2.398-5.68 2.398s-4.164-.883-5.68-2.32c-1.445-1.523-2.32-3.602-2.32-5.68s.875-4.164 2.32-5.68c2.961-2.961 8.32-2.961 11.359 0 1.516 1.516 2.32 3.602 2.32 5.68s-.803 4.157-2.319 5.602zm-35.906-99.07a7.788 7.788 0 01-1.789.203c-3.648 0-6.945-2.508-7.789-6.219a7.993 7.993 0 016.016-9.578c24.808-5.672 46.328-12.667 64.396-20.713a240.593 240.593 0 019.511 13.315c-19.603 9.038-43.199 16.792-70.345 22.992zM27.283 351.207zM29.933 356.127zM2.998 277.952zM275.665 2.641zM281.394 3.568zM.435 254.289c-.047-.793-.101-1.583-.14-2.378.039.795.094 1.585.14 2.378zM.146 247.974c-.022-.667-.054-1.332-.07-2.001.016.668.048 1.333.07 2.001zM269.87 1.849c1.265.157 2.523.334 3.782.511-1.259-.177-2.517-.354-3.782-.511zM246.08.077c.765.019 1.525.058 2.288.084-.763-.026-1.523-.065-2.288-.084zM252.11.303c.956.048 1.907.116 2.86.175-.953-.058-1.903-.127-2.86-.175zM287.051 4.623zM292.635 5.805zM298.142 7.107zM2.149 272.147zM1.438 266.279c-.095-.869-.191-1.737-.276-2.609.085.872.181 1.74.276 2.609zM.866 260.34c-.071-.843-.146-1.684-.208-2.529.062.845.138 1.687.208 2.529zM258.089.676c1.073.08 2.141.181 3.21.276-1.069-.095-2.137-.196-3.21-.276zM7.731 300.627c-.249-.956-.482-1.918-.72-2.879.238.961.471 1.923.72 2.879zM15.854 325.916zM9.241 306.163c-.29-1.011-.56-2.031-.837-3.047.277 1.017.548 2.036.837 3.047zM6.349 295.035c-.219-.931-.424-1.867-.632-2.802.208.935.414 1.871.632 2.802zM14.108 321.229zM5.1 289.396zM3.981 283.7zM264.01 1.192c1.172.117 2.338.254 3.506.387-1.168-.133-2.334-.27-3.506-.387z" fill="#ff4f19"/>
  <path d="M146.532 461.038c-.055-.001-.116.004-.171.002 5.193 2.203 10.499 4.183 15.878 6.005.472.162.948.317 1.421.475 1.227.407 2.452.819 3.688 1.208 1.986.63 3.983 1.236 5.992 1.816l.105.032a.008.008 0 00.004-.002 238.997 238.997 0 0037.553 7.619 242.15 242.15 0 01-16.276-17.003c-1.46.663-2.921 1.326-4.375 1.989-5.725 2.606-11.35 5.158-16.817 7.36-.763-.219-1.527-.437-2.288-.663a255.91 255.91 0 01-8.03-2.559c-1.713-.578-3.439-1.131-5.135-1.747-1.86-.668-3.681-1.418-5.519-2.133-2.014-.789-4.034-1.565-6.021-2.406 9.272.228 23.412-6.149 37.177-12.414l.662-.3c3.32 4.398 6.74 8.715 10.348 12.87 15.656-7.109 31.495-13.881 44.936-13.195 34.063 1.461 51.633-8.648 52.367-9.086 3.797-2.211 5.063-7.055 2.883-10.867-2.18-3.805-7.063-5.117-10.891-2.984-.141.086-14.867 8.219-43.688 6.953-18.323-.711-37.432 7.873-56.006 16.331C154.011 408.173 136 358.205 136 304c0-2.796.065-5.575.16-8.348 17.136 2.878 35.298 4.968 53.936 6.363.065.016.111.063.177.078l43.789 9.68c2.969.844 3.656 3.297 3.813 4.313.156 1.008.25 3.547-2.313 5.258A8 8 0 00240 336c49.867 0 97.57-5.328 137.937-15.422a7.99 7.99 0 006.063-7.664 7.994 7.994 0 00-5.875-7.805l-16.289-4.492 15.656-11.742c.106-.08.153-.201.254-.285 8.658-2.162 16.968-4.505 24.746-7.059a8 8 0 005.109-10.094c-1.383-4.203-5.898-6.5-10.094-5.109-11.938 3.922-25.102 7.391-39.141 10.328C322.789 284.078 281.859 288 240 288c-35.747 0-71.085-2.895-102.775-8.384l.004-.042c-.534 5.292-.831 10.651-1.017 16.039-3.252-.546-6.532-1.072-9.705-1.676-4.344-.828-7.195-5.016-6.367-9.352.82-4.344 5.008-7.188 9.352-6.367 2.503.477 5.193.816 7.745 1.259C149.521 158.448 251.73 64 376 64c9.822 0 19.485.659 28.998 1.806-28.208-26.727-62.88-46.698-101.437-57.281l-.237-.064c-1.719-.47-3.447-.921-5.182-1.353-.208-.052-.418-.102-.627-.153a238.6 238.6 0 00-4.879-1.149c-.328-.074-.658-.143-.986-.215-1.528-.336-3.06-.66-4.599-.967-.444-.088-.89-.17-1.334-.256a236.733 236.733 0 00-4.322-.8c-.558-.097-1.12-.185-1.679-.278a235.443 235.443 0 00-4.05-.648c-.669-.1-1.342-.187-2.013-.282-1.259-.177-2.517-.354-3.782-.511-.782-.097-1.57-.179-2.354-.269-1.167-.134-2.333-.271-3.506-.387-.901-.09-1.807-.161-2.71-.241-1.069-.094-2.137-.195-3.21-.276-1.036-.077-2.079-.134-3.119-.198-.953-.059-1.904-.128-2.86-.175-1.244-.062-2.494-.099-3.743-.142-.763-.026-1.523-.065-2.288-.084C244.059.027 242.033 0 240 0 134.986 0 45.739 67.453 13.186 161.39a191.98 191.98 0 011.431-4.048c.176.157.398.225.563.4 12.797 13.672 36.086 26.328 67.344 36.594a8 8 0 01-4.985 15.204c-29.783-9.778-53.172-21.912-68.33-35.342 1.216-4.272 2.51-8.51 3.935-12.688C4.635 186.105 0 212.51 0 240c0 1.997.027 3.987.076 5.973.016.669.049 1.334.07 2.001.043 1.314.086 2.628.15 3.937.039.795.093 1.585.14 2.378.069 1.176.137 2.351.223 3.522.062.845.137 1.686.208 2.529.094 1.112.187 2.223.296 3.33.085.872.181 1.74.276 2.609.117 1.071.236 2.141.367 3.208.109.889.226 1.775.345 2.66.139 1.037.282 2.072.434 3.105a237.081 237.081 0 00.914 5.72c.157.911.316 1.821.483 2.728.18.98.37 1.956.562 2.932.182.923.364 1.845.557 2.764.198.948.408 1.893.618 2.837.208.935.413 1.871.632 2.802.213.907.439 1.81.662 2.713.237.961.471 1.923.72 2.879.217.833.448 1.66.674 2.489.277 1.017.547 2.036.837 3.047.185.646.384 1.286.574 1.929a237.884 237.884 0 004.293 13.136c.086.239.167.481.254.72.483 1.329.986 2.649 1.492 3.967.16.418.315.839.477 1.255a238.237 238.237 0 001.533 3.809c.183.445.361.892.546 1.336a234.337 234.337 0 001.621 3.777c.187.427.371.856.561 1.283a246.163 246.163 0 001.735 3.804c.181.388.36.776.543 1.163.614 1.299 1.24 2.592 1.876 3.878.162.327.324.655.488.981a231.875 231.875 0 002.05 4.004c.126.241.254.481.381.722a245.209 245.209 0 002.269 4.198l.201.359c25.923 46.584 66.92 83.62 116.394 104.554zM170.32 74.32c2.961-2.961 8.32-2.961 11.359 0 1.516 1.516 2.32 3.602 2.32 5.68s-.805 4.156-2.32 5.602C180.156 87.117 178.078 88 176 88s-4.164-.883-5.68-2.32C168.875 84.156 168 82.078 168 80s.875-4.164 2.32-5.68zm-65.485 31.708c6.196-9.737 17.263-13.784 24.718-9.04 7.455 4.744 8.476 16.483 2.28 26.22s-17.262 13.784-24.718 9.04-8.476-16.483-2.28-26.22zm-49.2 168.79c-1.982-9.17 2.103-17.834 9.124-19.352 7.021-1.518 14.32 4.686 16.302 13.856s-2.103 17.834-9.124 19.352c-7.021 1.517-14.32-4.687-16.302-13.856z" fill="#db3f3d"/>
  <path d="M272.133 216c-16.281-.461-26.086 4.914-35.023 9.484-9.984 5.094-18.586 9.477-35.797 6.625-4.375-.773-8.484 2.219-9.203 6.578-.727 4.352 2.219 8.477 6.578 9.203 4.688.781 8.93 1.125 12.82 1.125 14.695 0 24.242-4.875 32.875-9.281 8.125-4.148 15.164-7.742 26.594-7.742.344 0 .766.023 1.023.008 4.359 0 7.93-3.5 8-7.867.07-4.422-3.453-8.063-7.867-8.133zM332.945 209.711a7.993 7.993 0 00-11.234 1.344c-1.664 2.117-10.484 4.523-18.156 4.961-4.406.242-7.781 4.016-7.539 8.422a7.994 7.994 0 007.977 7.563c.148 0 .289 0 .438-.008 5.187-.281 22.68-1.906 29.859-11.047a8.003 8.003 0 00-1.345-11.235z" fill="#db3f3d"/>
  <ellipse transform="scale(-1) rotate(-57.529 -208.787 215.556)" cx="118.334" cy="114.618" rx="20.897" ry="16" fill="#a03939"/>
  <ellipse transform="rotate(-12.204 68.313 272.056)" cx="68.348" cy="272.069" rx="13.006" ry="16.987" fill="#a03939"/>
  <path d="M176 88c2.078 0 4.156-.883 5.68-2.398C183.195 84.156 184 82.078 184 80s-.805-4.164-2.32-5.68c-3.039-2.961-8.398-2.961-11.359 0C168.875 75.836 168 77.922 168 80s.875 4.156 2.32 5.68c1.516 1.437 3.602 2.32 5.68 2.32z" fill="#a03939"/>
  <path d="M362.32 186.221c-1.445 1.516-2.32 3.602-2.32 5.68s.875 4.156 2.32 5.68c1.516 1.438 3.602 2.32 5.68 2.32s4.156-.883 5.68-2.398c1.516-1.445 2.32-3.523 2.32-5.602s-.805-4.164-2.32-5.68c-3.04-2.961-8.399-2.961-11.36 0zM394.32 218.32c-1.445 1.516-2.32 3.602-2.32 5.68s.875 4.156 2.32 5.68c1.516 1.438 3.602 2.32 5.68 2.32s4.156-.883 5.68-2.398c1.516-1.445 2.32-3.523 2.32-5.602s-.805-4.164-2.32-5.68c-3.04-2.961-8.399-2.961-11.36 0zM194.32 322.32c-1.445 1.516-2.32 3.602-2.32 5.68s.875 4.156 2.32 5.68c1.516 1.438 3.602 2.32 5.68 2.32s4.156-.883 5.68-2.398c1.516-1.445 2.32-3.523 2.32-5.602s-.805-4.164-2.32-5.68c-3.039-2.961-8.399-2.961-11.36 0zM298.32 362.32c-1.445 1.516-2.32 3.602-2.32 5.68s.875 4.156 2.32 5.68c1.516 1.438 3.602 2.32 5.68 2.32s4.156-.883 5.68-2.398c1.516-1.445 2.32-3.523 2.32-5.602s-.805-4.164-2.32-5.68c-3.04-2.961-8.399-2.961-11.36 0z" fill="#db3f3d"/>
  <path d="M120.141 284.586c-.828 4.336 2.023 8.523 6.367 9.352 3.173.604 6.453 1.13 9.705 1.676.185-5.388.482-10.747 1.017-16.039.003-.032.005-.065.009-.097-2.552-.443-5.243-.782-7.745-1.259-4.346-.821-8.533 2.023-9.353 6.367zM77.539 209.539a8 8 0 004.985-15.204c-31.258-10.266-54.547-22.922-67.344-36.594-.164-.175-.387-.243-.563-.4a191.98 191.98 0 00-1.431 4.048l-.042.119c-1.425 4.178-2.719 8.417-3.935 12.688 15.158 13.431 38.547 25.565 68.33 35.343zM184.38 448.317l-.662.3c-13.765 6.265-27.904 12.642-37.177 12.414 1.987.841 4.007 1.618 6.021 2.406 1.838.714 3.659 1.464 5.519 2.133 1.696.616 3.421 1.169 5.135 1.747a255.91 255.91 0 008.03 2.559c.76.227 1.524.444 2.288.663 5.467-2.202 11.092-4.754 16.817-7.36 1.454-.663 2.915-1.326 4.375-1.989l.004-.002-.001-.001c-3.608-4.155-7.029-8.472-10.349-12.87z" fill="#a03939"/>
  <path d="M430.607 94.224c-18.068 8.047-39.588 15.041-64.396 20.713a7.993 7.993 0 00-6.016 9.578c.844 3.711 4.141 6.219 7.789 6.219.594 0 1.188-.063 1.789-.203 27.146-6.2 50.742-13.954 70.345-22.992a241.122 241.122 0 00-9.511-13.315z" fill="#db3f3d"/>
</svg>
