<svg xmlns="http://www.w3.org/2000/svg" height="764" viewBox="0 0 573.204 573" width="764" width="100" height="100">
  <path d="M572.219 286.207c0 158.012-128.094 286.106-286.106 286.106C128.102 572.313.008 444.219.008 286.207S128.102.102 286.113.102c158.012 0 286.106 128.093 286.106 286.105zm0 0" fill="#c3c9d1"/>
  <path d="M463.637 61.93c0 .77.058 1.53.058 2.3-.02 215.86-156.941 399.688-370.12 433.598 116.484 106.766 297.46 98.895 404.226-17.582 106.77-116.473 98.894-297.46-17.578-404.226a281.721 281.721 0 00-16.586-14.09zm0 0" fill="#b7bdc4"/>
  <path d="M149.188 245.55c-16.348 0-29.598-13.25-29.598-29.597 0-16.348 13.25-29.598 29.597-29.598 16.348 0 29.598 13.25 29.598 29.598s-13.25 29.598-29.597 29.598zm0-39.46c-5.446 0-9.868 4.418-9.868 9.863 0 5.445 4.422 9.867 9.868 9.867 5.445 0 9.867-4.422 9.867-9.867 0-5.445-4.422-9.863-9.868-9.863zm0 0M70.262 235.688h19.73v19.73h-19.73zm0 0M208.383 117.297h19.73v19.734h-19.73zm0 0M336.637 196.223h19.73v19.734h-19.73zm0 0M228.113 373.805c-21.793 0-39.465-17.668-39.465-39.461s17.672-39.465 39.465-39.465c21.793 0 39.461 17.672 39.461 39.465 0 21.793-17.668 39.46-39.46 39.46zm0-59.192c-10.902 0-19.73 8.828-19.73 19.73 0 10.9 8.828 19.731 19.73 19.731 10.903 0 19.73-8.832 19.73-19.73 0-10.903-8.84-19.73-19.73-19.73zm0 0M494.488 393.54h19.73v19.73h-19.73zm0 0M445.16 146.895h19.73v19.73h-19.73zm0 0M366.234 502.059h19.73v19.734h-19.73zm0 0M139.32 452.73h19.735v19.735H139.32zm0 0M376.098 354.074h19.734v19.735h-19.734zm0 0M13.18 277.2A515.581 515.581 0 01124.44 160.3a534.502 534.502 0 0082.657-78.491l28.918-34.004a548.273 548.273 0 0112.707-14.395A197.248 197.248 0 01289.172.203c-1.973 0-3.828-.11-5.762-.101-10.074.101-20.125.73-30.129 1.886a203.779 203.779 0 00-19.09 18.094A519.738 519.738 0 00221 35.016l-28.938 34.02a517.104 517.104 0 01-79.585 75.597A534.902 534.902 0 001.19 260.082 296.596 296.596 0 00.008 288.91c0 2.152.156 4.281.226 6.422l7.786-10.684zm0 0M378.852 453.254a536.418 536.418 0 0082.664-78.5l28.918-34.02a518.774 518.774 0 0151.496-52.476l29.222-25.848c-.629-7.723-1.5-15.379-2.73-22.918l-9.098 7.067-30.515 26.914a539.096 539.096 0 00-53.461 54.488l-28.875 34.016a516.879 516.879 0 01-79.606 75.601 534.596 534.596 0 00-115.539 121.348l-7.3 10.261c7.429 1.094 14.964 1.844 22.562 2.36l.988-1.422a515.34 515.34 0 01111.274-116.871zm0 0M367.613 327.516a553.38 553.38 0 00159.54-155.66l12.421-18.32a301.142 301.142 0 00-11.12-19.427l-3.657 6.086-13.973 20.578A533.647 533.647 0 01356.93 310.871a553.75 553.75 0 00-158.551 154.262l-49.328 72.219a265.862 265.862 0 0017.758 8.878l47.816-70.046a533.699 533.699 0 01152.988-148.668zm0 0M134.469 334.875A462.116 462.116 0 00268.64 198.187 442.224 442.224 0 01397.023 67.29l30.86-20.543 8.07-4.23a286.327 286.327 0 00-20.242-11.368l-29.598 19.735A461.865 461.865 0 00251.97 187.55a442.367 442.367 0 01-128.442 130.91 462.52 462.52 0 00-97.394 87.121c2.96 6.445 6.086 12.828 9.512 18.953l1.312-1.422a444.751 444.751 0 0197.512-88.238zm0 0" fill="#808b96"/>
</svg>
