<svg xmlns="http://www.w3.org/2000/svg" viewBox="0 0 512 512" width="100" height="100">
  <path d="M511.996 256c0 141.375-114.594 256-255.992 256-141.391 0-256-114.625-256-256 0-141.391 114.609-256 256-256 141.398 0 255.992 114.609 255.992 256z" fill="#5d9cec"/>
  <g fill="#4a89dc">
    <path d="M288.004 128H34.254c-4 6.906-7.688 14.031-11.031 21.328h264.781c5.891 0 10.672-4.781 10.672-10.672S293.895 128 288.004 128zM463.965 405.328H266.676c-5.891 0-10.672 4.781-10.672 10.672s4.781 10.656 10.672 10.656h180.133a253.626 253.626 0 0017.156-21.328zM149.332 341.328H14.566a256.81 256.81 0 008.656 21.328h126.109c5.891 0 10.672-4.766 10.672-10.656s-4.78-10.672-10.671-10.672zM362.676 266.656c0 5.891 4.766 10.672 10.656 10.672h137.789a253.29 253.29 0 00.875-21.328H373.332a10.65 10.65 0 00-10.656 10.656zM74.676 245.328c0-5.891-4.781-10.672-10.672-10.672H.879A260.885 260.885 0 00.004 256h64c5.891 0 10.672-4.781 10.672-10.672zM181.332 64c5.891 0 10.672-4.781 10.672-10.672s-4.781-10.672-10.672-10.672h-66.875A257.963 257.963 0 0086.676 64h94.656zM341.332 266.656c0 17.688-28.641 32-64 32-35.344 0-64-14.312-64-32 0-17.672 28.656-32 64-32 35.359 0 64 14.328 64 32z"/>
  </g>
</svg>
