<svg xmlns="http://www.w3.org/2000/svg" viewBox="-25 -25 400 400" width="100" height="100">
  <path d="M167.12 346.07C76.84 341.63 5 267.02 5 175.64 5 85.8 74.42 12.19 162.53 5.5c4.33-.33 8.7-.5 13.11-.5 38.41 0 73.85 12.69 102.37 34.1 41.45 31.13 68.27 80.7 68.27 136.54 0 47.75-19.61 90.91-51.22 121.88-30.77 30.16-72.93 48.76-119.42 48.76-2.86 0-5.7-.07-8.52-.21z" fill="#eac16e"/>
  <path d="M237.298 211.994s49.185-32.578 74.465 8.358-10.354 99.25-117.033 101.101c-77.838-72.973-64.459-139.864-18.243-153.243s60.811 43.784 60.811 43.784" fill="#efd4a5"/>
  <path d="M237.294 216.996a5.002 5.002 0 01-4.841-3.764c-.023-.091-2.565-9.793-8.647-19.819a4.999 4.999 0 011.681-6.868 4.998 4.998 0 016.868 1.682c6.888 11.353 9.673 22.081 9.788 22.532a5.002 5.002 0 01-4.849 6.237zM159.326 181.729a5 5 0 01-3.025-8.984c5.514-4.181 11.838-7.322 18.796-9.336 16.217-4.694 30.648-2.038 42.902 7.897a5 5 0 11-6.297 7.768c-9.561-7.751-20.941-9.79-33.824-6.059-5.776 1.672-11.003 4.262-15.534 7.699a4.99 4.99 0 01-3.018 1.015zM143.542 202.273a5 5 0 01-4.613-6.925 56.815 56.815 0 013.593-7.161 5 5 0 118.596 5.11 46.997 46.997 0 00-2.958 5.897 5.002 5.002 0 01-4.618 3.079zM194.731 326.454a4.999 4.999 0 01-3.42-1.353c-53.414-50.075-58.63-90.668-56.985-110.408a4.999 4.999 0 119.964.83c-2.509 30.117 16.565 66.807 52.384 100.889 7.299-.179 14.426-.636 21.215-1.361a4.996 4.996 0 015.503 4.441 5 5 0 01-4.44 5.502c-7.712.824-15.831 1.314-24.134 1.458l-.087.002z" fill="#333"/>
  <path d="M238.639 321.924a5 5 0 01-.994-9.9c36.747-7.487 63.378-24.621 73.063-47.01 6.046-13.975 4.909-28.903-3.199-42.035-5.838-9.453-13.571-15.301-22.985-17.381-21.057-4.652-44.239 10.416-44.471 10.568a5 5 0 01-5.517-8.34c1.084-.72 26.879-17.544 52.091-12.004 12.179 2.676 22.067 10.045 29.39 21.903 9.877 15.993 11.251 34.197 3.869 51.259-11.002 25.431-40.25 44.689-80.245 52.838a4.982 4.982 0 01-1.002.102z" fill="#333"/>
  <path d="M190.246 336.993c-19.96-7.05-38.22-17.72-53.98-31.21-36.59-31.3-59.78-77.8-59.78-129.72 0-46.04 18.24-87.83 47.88-118.52 16.33-16.91 36.12-30.46 58.23-39.5a169.69 169.69 0 0128.788-8.857 171.254 171.254 0 00-35.745-3.763c-22.84 0-44.62 4.49-64.53 12.62-22.11 9.04-41.9 22.59-58.23 39.5-29.64 30.69-47.88 72.48-47.88 118.52 0 51.92 23.19 98.42 59.78 129.72 15.76 13.49 34.02 24.16 53.98 31.21 17.79 6.29 36.94 9.71 56.88 9.71 12.255 0 24.208-1.3 35.734-3.756a169.182 169.182 0 01-21.127-5.954z" opacity=".25"/>
  <g fill="#fff">
    <path d="M250.336 52.602a4.975 4.975 0 01-2.649-.763 145.836 145.836 0 00-18.473-9.799 5 5 0 014.039-9.148 155.908 155.908 0 0119.742 10.473 5 5 0 01-2.659 9.237zM273.434 290.345a5 5 0 01-3.417-8.651c29.375-27.482 46.223-66.239 46.223-106.333 0-40.324-16.17-77.856-45.532-105.684a5 5 0 116.879-7.257c31.375 29.735 48.653 69.845 48.653 112.942 0 42.851-18.002 84.27-49.391 113.636a4.992 4.992 0 01-3.415 1.347zM252.403 306.807a5 5 0 01-2.727-9.194 146.82 146.82 0 007.524-5.227 5 5 0 016.995 1.036 5 5 0 01-1.036 6.995 157.284 157.284 0 01-8.038 5.584 4.987 4.987 0 01-2.718.806z"/>
  </g>
  <path d="M175.64 351.28c-2.932 0-5.881-.073-8.766-.216C73.3 346.462 0 269.406 0 175.64c0-44.566 16.715-87.062 47.064-119.658C77.254 23.556 118.127 3.857 162.15.515A177.9 177.9 0 01175.64 0c38.345 0 74.782 12.138 105.372 35.101 21.339 16.026 39.019 37.025 51.129 60.728 12.699 24.855 19.139 51.708 19.139 79.811 0 47.59-18.724 92.143-52.721 125.452-33.019 32.364-76.672 50.188-122.919 50.188zm0-341.28c-4.221 0-8.504.164-12.73.485-41.512 3.152-80.053 21.729-108.526 52.311C25.762 93.535 10 133.611 10 175.64c0 88.428 69.123 161.097 157.365 165.436h.002c2.722.135 5.505.204 8.272.204 43.613 0 84.781-16.809 115.92-47.331 32.063-31.413 49.72-73.429 49.72-118.31 0-26.506-6.07-51.828-18.043-75.261-11.423-22.355-28.1-42.163-48.229-57.281C246.163 21.445 211.802 10 175.64 10z" fill="#333"/>
</svg>
