<svg xmlns="http://www.w3.org/2000/svg" viewBox="0 0 502.74 502.74" width="100" height="100">
  <path d="M395.431 251.37c0 .962-.018 1.919-.036 2.876.023-.955.036-1.914.036-2.876z" fill="none"/>
  <path d="M434.563 175.558c-.695-1.68-5.984-4.57-20.336-4.57-8.906 0-21.297 1.109-38.25 4.313-38.578 7.281-87.578 22.789-137.969 43.664-50.391 20.875-96.008 44.555-128.43 66.688-37.219 25.398-42.375 38.883-41.25 41.609 1.733 4.199 19.547 7.848 60.63-.13a142.66 142.66 0 01-3.449-5.871l-.118-.211c-.462-.834-.915-1.674-1.361-2.518l-.231-.438a138.72 138.72 0 01-1.228-2.399l-.294-.591c-.382-.772-.758-1.547-1.126-2.327-.109-.231-.217-.464-.325-.696-.353-.758-.701-1.517-1.041-2.282-.114-.257-.225-.515-.338-.772-.329-.753-.656-1.507-.973-2.267l-.008-.018c5.518-10.29 33.918-28.665 74.006-48.367 15.792-7.762 33.396-15.729 52.128-23.488 66.279-27.454 124.41-43.083 139.996-38.382a142.875 142.875 0 017.016 21.819c34.681-23.413 44.685-38.586 42.951-42.766z" fill="#b68057"/>
  <path d="M279.66 110.144zM286.315 111.634zM283.012 110.853zM395.394 254.246c.019-.957.036-1.915.036-2.876 0-.786-.022-1.565-.035-2.348a.673.673 0 01-.035.022 139.838 139.838 0 00-.464-9.227l.044-.029a142.802 142.802 0 00-3.418-21.405l.092-.063a142.95 142.95 0 00-7.016-21.819c-15.586-4.7-73.717 10.929-139.996 38.382-18.732 7.759-36.336 15.726-52.128 23.488a144.484 144.484 0 00-3.443 31.398c0 41.168 17.304 78.272 45.001 104.516-25.063-3.021-48.141-12.482-67.54-26.67l-.036.009c23.819 17.44 53.191 27.745 84.975 27.745 72.008 0 131.67-52.855 142.31-121.885-.067.041-.133.082-.201.122.986-6.343 1.691-12.781 1.854-19.36zM336.357 135.08a143.432 143.432 0 00-46.79-22.595c17.057 4.682 32.842 12.433 46.744 22.606a.619.619 0 01.046-.011zM272.829 108.955zM269.35 108.479c.761.094 1.519.201 2.276.308-.757-.107-1.514-.214-2.276-.308zM265.837 108.085c.706.07 1.407.153 2.11.233-.703-.08-1.405-.163-2.11-.233zM262.283 107.775c.646.048 1.289.109 1.934.166-.645-.056-1.288-.117-1.934-.166zM255.08 107.416c.45.011.898.034 1.347.05-.449-.016-.897-.039-1.347-.05zM258.699 107.552c.573.029 1.142.07 1.713.105-.571-.035-1.141-.076-1.713-.105zM276.269 109.511zM128.965 327.129a143.236 143.236 0 01-3.456-5.87 144.282 144.282 0 003.449 5.871l.007-.001zM119.786 309.797zM122.572 315.693zM124.03 318.53zM121.152 312.775zM118.476 306.758z" fill="#ffd042"/>
  <path d="M189.031 289.77c0-10.785 1.195-21.29 3.443-31.398-40.088 19.702-68.488 38.078-74.006 48.367l.008.018c.317.76.643 1.514.973 2.267.113.257.224.516.338.772.34.765.688 1.525 1.041 2.282.108.232.215.464.325.696.368.78.744 1.555 1.126 2.327l.294.591c.402.804.811 1.604 1.228 2.399l.231.438c.446.844.899 1.684 1.361 2.518l.118.211a143.236 143.236 0 003.456 5.87l.153-.029a144.686 144.686 0 0012.604 17.303l.177-.037c1.97 2.32 3.965 4.608 6.075 6.797l-.118.025a144.896 144.896 0 0018.751 16.399l-.115.028c19.399 14.188 42.477 23.649 67.54 26.67-27.699-26.242-45.003-63.346-45.003-104.514zM336.311 135.091c-13.902-10.173-29.687-17.924-46.744-22.606l-.141-.038a144.73 144.73 0 00-3.111-.813l-.374-.091c-.973-.24-1.949-.47-2.929-.69-.197-.044-.394-.085-.591-.128-.917-.202-1.837-.396-2.761-.58-.266-.053-.533-.102-.799-.153-.862-.167-1.725-.329-2.592-.479-.337-.059-.676-.112-1.013-.168-.807-.135-1.615-.267-2.427-.388-.4-.06-.802-.112-1.202-.168-.757-.106-1.515-.213-2.276-.308-.467-.058-.936-.107-1.404-.161-.703-.08-1.404-.163-2.11-.233-.539-.054-1.08-.096-1.62-.144-.644-.057-1.287-.118-1.934-.166-.622-.046-1.247-.08-1.871-.118-.571-.035-1.14-.076-1.713-.105-.755-.038-1.514-.06-2.272-.086-.449-.015-.897-.038-1.347-.05-1.213-.03-2.429-.046-3.649-.046-72.03 0-131.706 52.886-142.32 121.946 33.467-20.203 71.687-39.286 110.289-55.274 40.184-16.648 80.077-29.887 116.911-38.953z" fill="#dbb246"/>
  <path d="M500.446 148.229v-.004c-9.359-22.59-43.781-31.23-99.531-25.031-19.884 2.215-41.629 6.243-64.558 11.885a.767.767 0 01-.046.011c-36.833 9.066-76.726 22.305-116.911 38.951-38.602 15.988-76.822 35.071-110.289 55.274C37.917 272.293-11.737 320.347 2.415 354.518c7.398 17.844 31.414 26.914 68.148 26.914 26.028 0 58.493-4.599 95.893-13.807l.036-.009.115-.028a144.896 144.896 0 01-18.751-16.399c-27.116 5.97-51.087 9.111-70.179 9.111-25.144 0-41.901-5.37-46.548-16.627-13.104-31.747 75.128-98.287 197.071-148.621 78.701-32.485 152.217-50.281 197.977-50.283h.009c25.139 0 41.893 5.371 46.539 16.627 8.173 19.799-23.077 53.132-77.33 87.626.013.782.035 1.562.035 2.348 0 .962-.013 1.921-.036 2.876-.163 6.579-.868 13.017-1.854 19.361.068-.041.133-.082.201-.122 79.418-48.064 119.313-94.799 106.705-125.256z" fill="#d49e6c"/>
  <path d="M231.253 202.447C99.035 257.022 29.891 319.706 38.524 340.621c3.063 7.422 17.334 11.68 39.153 11.68 17.928 0 39.741-2.764 64.045-7.897a144.656 144.656 0 01-12.604-17.303l-.153.029-.006.001c-41.083 7.978-58.897 4.329-60.63.13-1.125-2.727 4.031-16.211 41.25-41.609 32.422-22.133 78.039-45.813 128.43-66.688 50.391-20.875 99.39-36.383 137.969-43.664 16.953-3.203 29.344-4.313 38.25-4.313 14.352 0 19.641 2.891 20.336 4.57 1.733 4.18-8.271 19.353-42.949 42.764l-.092.063c1.66 6.953 2.814 14.1 3.418 21.405 51.099-33.256 75.75-62.353 70.39-75.34-3.063-7.422-17.331-11.68-39.144-11.68v-8l-.008 8c-46.701.002-119.57 18.574-194.926 49.678z" fill="#d49e6c"/>
  <path d="M141.899 344.367l-.177.037c-24.305 5.134-46.117 7.897-64.045 7.897-21.818 0-36.089-4.257-39.153-11.68-8.633-20.915 60.511-83.599 192.729-138.174 75.356-31.104 148.225-49.676 194.925-49.678l.008-8h-.009c-45.76.002-119.276 17.798-197.977 50.283C106.257 245.387 18.025 311.927 31.129 343.674c4.647 11.258 21.404 16.627 46.548 16.627 19.092 0 43.063-3.141 70.179-9.111l.118-.025c-2.11-2.19-4.105-4.478-6.075-6.798z" fill="#b68057"/>
  <path fill="none" d="M426.186 144.77v-.001"/>
  <path d="M465.33 164.449c5.361 12.987-19.291 42.084-70.39 75.34l-.044.029c.252 3.049.413 6.124.464 9.227l.035-.022c54.253-34.494 85.502-67.827 77.33-87.626-4.646-11.256-21.4-16.627-46.539-16.627v8c21.813-.001 36.081 4.256 39.144 11.679z" fill="#b68057"/>
</svg>
