<svg xmlns="http://www.w3.org/2000/svg" viewBox="0 0 501.381 501.381" width="100" height="100">
  <path d="M71.312 339.206a195.891 195.891 0 01-1.562-3.229c-.153-.323-.302-.647-.453-.971-.49-1.052-.974-2.108-1.446-3.17-.157-.354-.311-.711-.466-1.066a195.067 195.067 0 01-1.352-3.151c-.154-.368-.302-.74-.453-1.109a208.437 208.437 0 01-1.279-3.177c-.135-.347-.264-.698-.397-1.046a198.612 198.612 0 01-1.244-3.307c-.072-.199-.139-.4-.211-.599a198.323 198.323 0 01-3.307-10.038c-10.91 10.607-15.822 19.524-13.269 25.792 2.553 6.267 12.309 9.206 27.524 9.17a206.025 206.025 0 01-1.677-3.277c-.137-.273-.272-.548-.408-.822zM455.51 167.246c-2.554-6.269-12.304-9.214-27.527-9.176a198.776 198.776 0 0114.257 34.962c10.904-10.604 15.823-19.521 13.27-25.786z" fill="none"/>
  <path d="M364.025 104.024c-68.087 0-128.217 34.032-164.337 86.005a963.667 963.667 0 0122.429-9.475C292.204 152 358.841 134.363 409.442 129.05 383.248 94.916 346.3 69.477 303.658 57.794c32.131 8.819 61.025 25.462 84.531 47.734-7.927-.955-15.979-1.504-24.164-1.504zM90.102 369.885c-.578-.777-1.144-1.563-1.711-2.349.565.787 1.134 1.571 1.711 2.349zM285.187 53.664zM289.904 54.544zM299.141 56.613zM442.191 193.081l.049-.049a198.714 198.714 0 00-14.257-34.962c-38.626.097-112.509 19.413-193.649 52.47-20.612 8.397-40.263 17.102-58.575 25.857-7.589 21.124-11.734 43.89-11.734 67.627 0 57.178 24.033 108.712 62.502 145.162-55.619-6.704-104.214-36.219-136.139-78.919.416.558.829 1.118 1.251 1.671 36.542 47.863 94.185 78.753 159.052 78.753 110.457 0 200-89.543 200-200 0-8.11-.496-16.103-1.434-23.96l-.023.018a198.633 198.633 0 00-7.043-33.668zM69.75 335.978zM66.033 327.62zM64.301 323.333zM62.66 318.981zM86.967 365.539l-.229-.329.229.329zM67.851 331.837zM59.143 308.342l-.001.001a198.323 198.323 0 00.001-.001zM294.554 55.528zM51.413 267.635c-.059-.699-.121-1.398-.173-2.099.052.701.114 1.4.173 2.099zM265.767 51.254c.892.067 1.78.151 2.669.229-.889-.078-1.776-.163-2.669-.229zM50.813 257.324c-.018-.552-.045-1.102-.058-1.656.013.554.04 1.104.058 1.656zM260.784 50.943c.792.039 1.579.096 2.369.145-.79-.048-1.577-.105-2.369-.145zM255.759 50.755c.633.016 1.261.048 1.892.07-.632-.022-1.26-.055-1.892-.07zM73.397 343.305zM280.413 52.892zM51.89 272.59c-.079-.724-.159-1.447-.23-2.173.071.726.151 1.449.23 2.173zM275.583 52.231c1.053.131 2.1.278 3.148.426-1.048-.147-2.095-.295-3.148-.426zM270.7 51.684c.976.097 1.948.211 2.92.323-.973-.111-1.944-.226-2.92-.323zM51.053 262.585c-.038-.655-.083-1.309-.115-1.966.032.657.077 1.311.115 1.966z" fill="#708aff"/>
  <path d="M226.527 449.186c-38.469-36.45-62.502-87.984-62.502-145.162 0-23.737 4.145-46.503 11.734-67.627-53.781 25.713-95.958 51.86-116.616 71.945a198.386 198.386 0 003.306 10.04c.072.199.139.4.211.599.403 1.108.822 2.208 1.244 3.307.134.348.262.698.397 1.046.415 1.065.845 2.122 1.279 3.177.151.369.299.741.453 1.109.441 1.056.894 2.104 1.352 3.151.156.355.309.712.466 1.066.472 1.062.956 2.118 1.446 3.17.151.324.301.648.453.971a195.891 195.891 0 001.562 3.229l.408.822a194.11 194.11 0 001.677 3.277l.116.001c3.974 7.587 8.371 14.915 13.225 21.905l.229.329c.468.671.948 1.332 1.424 1.997.567.786 1.133 1.572 1.711 2.349l.286.382c31.925 42.698 80.52 72.213 136.139 78.917zM199.688 190.029c36.12-51.973 96.249-86.005 164.337-86.005 8.185 0 16.237.549 24.165 1.505-23.506-22.272-52.4-38.915-84.531-47.734l-.195-.053a199.874 199.874 0 00-4.322-1.129c-.172-.043-.344-.083-.515-.126a195.83 195.83 0 00-4.071-.959c-.274-.062-.549-.119-.823-.179-1.272-.28-2.547-.55-3.827-.805-.373-.074-.749-.143-1.123-.215a194.405 194.405 0 00-3.594-.665c-.465-.081-.934-.154-1.4-.232a195.893 195.893 0 00-3.374-.54c-.559-.083-1.121-.156-1.682-.235-1.047-.147-2.095-.295-3.148-.426-.653-.081-1.309-.15-1.964-.225-.972-.111-1.943-.225-2.92-.323-.752-.075-1.509-.135-2.263-.201-.889-.078-1.777-.162-2.669-.229-.869-.065-1.742-.112-2.614-.166-.789-.049-1.577-.106-2.369-.145-1.041-.052-2.088-.083-3.134-.119-.631-.021-1.259-.054-1.892-.07a203.211 203.211 0 00-5.067-.064c-110.457 0-200 89.543-200 200 0 1.664.022 3.323.063 4.978.013.553.04 1.103.058 1.656.036 1.1.072 2.2.125 3.295.032.657.077 1.311.115 1.966.058.985.115 1.97.187 2.951.052.701.114 1.4.173 2.099.078.929.156 1.857.247 2.782.071.726.151 1.449.23 2.173.074.682.143 1.365.224 2.045 35.579-28.141 87.133-58.181 147.573-84.605z" fill="#3d6edd"/>
  <path d="M499.727 149.232c-7.739-18.997-41.586-25.296-90.284-20.182-50.601 5.313-117.238 22.95-187.325 51.504a963.667 963.667 0 00-22.429 9.475c-60.44 26.424-111.994 56.464-147.574 84.606-38.395 30.368-58.196 58.521-50.458 77.514 7.737 18.99 41.593 25.27 90.265 20.166-.095-.124-.187-.252-.282-.377-.422-.553-.835-1.113-1.251-1.671-.095-.128-.192-.254-.286-.382a180.606 180.606 0 01-1.711-2.349c-.476-.664-.956-1.326-1.424-1.997l-.229-.329c-4.854-6.989-9.251-14.318-13.225-21.905l-.116-.001h-.001c-15.215.036-24.971-2.903-27.524-9.17-2.553-6.267 2.359-15.184 13.269-25.792l.001-.001c20.658-20.085 62.835-46.232 116.616-71.945 18.312-8.755 37.963-17.46 58.575-25.857 81.14-33.057 155.023-52.373 193.649-52.47 15.223-.038 24.973 2.907 27.527 9.176 2.553 6.266-2.366 15.182-13.27 25.786l-.049.049a198.644 198.644 0 017.044 33.667l.023-.018c38.378-30.359 58.205-58.508 50.469-77.497z" fill="#9dc1ff"/>
</svg>
