<svg xmlns="http://www.w3.org/2000/svg" viewBox="0 0 512 512" width="100" height="100">
  <path d="M512 255.998c0 141.375-114.625 256-256.005 256C114.605 511.998 0 397.373 0 255.998 0 114.608 114.605.002 255.995.002 397.375.002 512 114.608 512 255.998z" fill="#ffce54"/>
  <g fill="#f6bb42">
    <path d="M68.433 81.767c3.485 3.562 32.61 32.043 99.048 60.375 40.327 17.188 86.356 30.875 136.779 40.668 61.153 11.889 129.02 18.062 201.836 18.389a246.38 246.38 0 00-5.625-21.375c-68.788-.591-132.903-6.529-190.76-17.683-48.798-9.394-93.278-22.486-132.201-38.923-34.577-14.596-58.279-29.188-72.077-38.841C90.591 73.983 83.73 66.906 83.591 66.752c-.111.091-.207.188-.312.293l-7.312 6.957a254.436 254.436 0 00-7.534 7.765zM329.395 290.324c61.01 13.02 117.48 30.125 168.076 50.895a269.246 269.246 0 006.25-20.49c-51.288-20.924-108.346-38.135-169.885-51.26-53.125-11.332-109.687-19.645-168.105-24.707-82.221-7.139-145.375-5.75-165.23-5.029A262.893 262.893 0 000 255.998c0 1.702.015 3.403.043 5.096 17.548-.674 80.625-2.299 163.842 4.924 57.548 4.98 113.235 13.162 165.51 24.306zM306.697 418.479c-38.674-3.779-79.312-4.559-120.812-2.346-60.438 3.25-104.342 11.816-117.058 14.518a258.719 258.719 0 0018.716 18.107c20-3.588 55.688-9 99.952-11.338 40.375-2.145 79.875-1.365 117.418 2.309 37.597 3.691 73.27 10.316 106.433 19.73a247.084 247.084 0 0019.434-16.451c-38.251-11.963-79.925-20.233-124.083-24.529z"/>
  </g>
</svg>
