<svg xmlns="http://www.w3.org/2000/svg" height="573pt" version="1.1" viewBox="0 0 573.20363 573" width="573pt">
<g id="surface1">
<path d="M 572.21875 286.207031 C 572.21875 444.21875 444.125 572.3125 286.113281 572.3125 C 128.101562 572.3125 0.0078125 444.21875 0.0078125 286.207031 C 0.0078125 128.195312 128.101562 0.101562 286.113281 0.101562 C 444.125 0.101562 572.21875 128.195312 572.21875 286.207031 Z M 572.21875 286.207031 " style=" stroke:none;fill-rule:nonzero;fill:rgb(76.470588%,78.823529%,81.960784%);fill-opacity:1;" />
<path d="M 463.636719 61.929688 C 463.636719 62.699219 463.695312 63.460938 463.695312 64.230469 C 463.675781 280.089844 306.753906 463.917969 93.574219 497.828125 C 210.058594 604.59375 391.035156 596.722656 497.800781 480.246094 C 604.570312 363.773438 596.695312 182.785156 480.222656 76.019531 C 474.875 71.105469 469.339844 66.410156 463.636719 61.929688 Z M 463.636719 61.929688 " style=" stroke:none;fill-rule:nonzero;fill:rgb(71.764706%,74.117647%,76.862745%);fill-opacity:1;" />
<path d="M 149.1875 245.550781 C 132.839844 245.550781 119.589844 232.300781 119.589844 215.953125 C 119.589844 199.605469 132.839844 186.355469 149.1875 186.355469 C 165.535156 186.355469 178.785156 199.605469 178.785156 215.953125 C 178.785156 232.300781 165.535156 245.550781 149.1875 245.550781 Z M 149.1875 206.089844 C 143.742188 206.089844 139.320312 210.507812 139.320312 215.953125 C 139.320312 221.398438 143.742188 225.820312 149.1875 225.820312 C 154.632812 225.820312 159.054688 221.398438 159.054688 215.953125 C 159.054688 210.507812 154.632812 206.089844 149.1875 206.089844 Z M 149.1875 206.089844 " style=" stroke:none;fill-rule:nonzero;fill:rgb(50.196078%,54.509804%,58.823529%);fill-opacity:1;" />
<path d="M 70.261719 235.6875 L 89.992188 235.6875 L 89.992188 255.417969 L 70.261719 255.417969 Z M 70.261719 235.6875 " style=" stroke:none;fill-rule:nonzero;fill:rgb(50.196078%,54.509804%,58.823529%);fill-opacity:1;" />
<path d="M 208.382812 117.296875 L 228.113281 117.296875 L 228.113281 137.03125 L 208.382812 137.03125 Z M 208.382812 117.296875 " style=" stroke:none;fill-rule:nonzero;fill:rgb(50.196078%,54.509804%,58.823529%);fill-opacity:1;" />
<path d="M 336.636719 196.222656 L 356.367188 196.222656 L 356.367188 215.957031 L 336.636719 215.957031 Z M 336.636719 196.222656 " style=" stroke:none;fill-rule:nonzero;fill:rgb(50.196078%,54.509804%,58.823529%);fill-opacity:1;" />
<path d="M 228.113281 373.804688 C 206.320312 373.804688 188.648438 356.136719 188.648438 334.34375 C 188.648438 312.550781 206.320312 294.878906 228.113281 294.878906 C 249.90625 294.878906 267.574219 312.550781 267.574219 334.34375 C 267.574219 356.136719 249.90625 373.804688 228.113281 373.804688 Z M 228.113281 314.613281 C 217.210938 314.613281 208.382812 323.441406 208.382812 334.34375 C 208.382812 345.242188 217.210938 354.074219 228.113281 354.074219 C 239.015625 354.074219 247.84375 345.242188 247.84375 334.34375 C 247.84375 323.441406 239.003906 314.613281 228.113281 314.613281 Z M 228.113281 314.613281 " style=" stroke:none;fill-rule:nonzero;fill:rgb(50.196078%,54.509804%,58.823529%);fill-opacity:1;" />
<path d="M 494.488281 393.539062 L 514.21875 393.539062 L 514.21875 413.269531 L 494.488281 413.269531 Z M 494.488281 393.539062 " style=" stroke:none;fill-rule:nonzero;fill:rgb(50.196078%,54.509804%,58.823529%);fill-opacity:1;" />
<path d="M 445.160156 146.894531 L 464.890625 146.894531 L 464.890625 166.625 L 445.160156 166.625 Z M 445.160156 146.894531 " style=" stroke:none;fill-rule:nonzero;fill:rgb(50.196078%,54.509804%,58.823529%);fill-opacity:1;" />
<path d="M 366.234375 502.058594 L 385.964844 502.058594 L 385.964844 521.792969 L 366.234375 521.792969 Z M 366.234375 502.058594 " style=" stroke:none;fill-rule:nonzero;fill:rgb(50.196078%,54.509804%,58.823529%);fill-opacity:1;" />
<path d="M 139.320312 452.730469 L 159.054688 452.730469 L 159.054688 472.464844 L 139.320312 472.464844 Z M 139.320312 452.730469 " style=" stroke:none;fill-rule:nonzero;fill:rgb(50.196078%,54.509804%,58.823529%);fill-opacity:1;" />
<path d="M 376.097656 354.074219 L 395.832031 354.074219 L 395.832031 373.808594 L 376.097656 373.808594 Z M 376.097656 354.074219 " style=" stroke:none;fill-rule:nonzero;fill:rgb(50.196078%,54.509804%,58.823529%);fill-opacity:1;" />
<path d="M 13.179688 277.199219 C 43.898438 232.636719 81.449219 193.183594 124.441406 160.300781 C 154.710938 137.15625 182.425781 110.84375 207.097656 81.808594 L 236.015625 47.804688 C 240.167969 42.929688 244.402344 38.136719 248.722656 33.410156 C 260.671875 20.59375 274.273438 9.425781 289.171875 0.203125 C 287.199219 0.203125 285.34375 0.09375 283.410156 0.101562 C 273.335938 0.203125 263.285156 0.832031 253.28125 1.988281 C 246.53125 7.601562 240.160156 13.648438 234.191406 20.082031 C 229.699219 24.972656 225.300781 29.957031 221 35.015625 L 192.0625 69.035156 C 168.296875 96.984375 141.609375 122.328125 112.476562 144.632812 C 69.789062 177.308594 32.269531 216.230469 1.191406 260.082031 C 0.332031 269.605469 -0.0625 279.210938 0.0078125 288.910156 C 0.0078125 291.0625 0.164062 293.191406 0.234375 295.332031 L 8.019531 284.648438 Z M 13.179688 277.199219 " style=" stroke:none;fill-rule:nonzero;fill:rgb(50.196078%,54.509804%,58.823529%);fill-opacity:1;" />
<path d="M 378.851562 453.253906 C 409.121094 430.101562 436.824219 403.777344 461.515625 374.753906 L 490.433594 340.734375 C 506.335938 322.050781 523.542969 304.507812 541.929688 288.257812 L 571.152344 262.410156 C 570.523438 254.6875 569.652344 247.03125 568.421875 239.492188 L 559.324219 246.558594 L 528.808594 273.472656 C 509.71875 290.351562 491.863281 308.554688 475.347656 327.960938 L 446.472656 361.976562 C 422.695312 389.9375 396.007812 415.273438 366.867188 437.578125 C 322.214844 471.703125 283.222656 512.65625 251.328125 558.925781 L 244.027344 569.1875 C 251.457031 570.28125 258.992188 571.03125 266.589844 571.546875 L 267.578125 570.125 C 298.296875 525.570312 335.855469 486.125 378.851562 453.253906 Z M 378.851562 453.253906 " style=" stroke:none;fill-rule:nonzero;fill:rgb(50.196078%,54.509804%,58.823529%);fill-opacity:1;" />
<path d="M 367.613281 327.515625 C 430.804688 286.988281 485.074219 234.027344 527.152344 171.855469 L 539.574219 153.535156 C 536.101562 146.90625 532.390625 140.433594 528.453125 134.109375 L 524.796875 140.195312 L 510.824219 160.773438 C 470.238281 220.730469 417.878906 271.792969 356.929688 310.871094 C 294.242188 351.105469 240.316406 403.570312 198.378906 465.132812 L 149.050781 537.351562 C 154.851562 540.527344 160.769531 543.488281 166.808594 546.230469 L 214.625 476.183594 C 255.09375 416.839844 307.125 366.277344 367.613281 327.515625 Z M 367.613281 327.515625 " style=" stroke:none;fill-rule:nonzero;fill:rgb(50.196078%,54.509804%,58.823529%);fill-opacity:1;" />
<path d="M 134.46875 334.875 C 188.246094 299.179688 233.953125 252.625 268.640625 198.1875 C 301.820312 146.066406 345.554688 101.472656 397.023438 67.289062 L 427.882812 46.746094 L 435.953125 42.515625 C 429.375 38.460938 422.625 34.671875 415.710938 31.148438 L 386.113281 50.882812 C 332.34375 86.566406 286.644531 133.121094 251.96875 187.550781 C 218.769531 239.683594 175.015625 284.273438 123.527344 318.460938 C 87.101562 342.75 54.308594 372.078125 26.132812 405.582031 C 29.09375 412.027344 32.21875 418.410156 35.644531 424.535156 L 36.957031 423.113281 C 64.90625 389.039062 97.765625 359.292969 134.46875 334.875 Z M 134.46875 334.875 " style=" stroke:none;fill-rule:nonzero;fill:rgb(50.196078%,54.509804%,58.823529%);fill-opacity:1;" />
</g>
</svg>