<?xml version="1.0" encoding="iso-8859-1"?>
<!-- Generator: Adobe Illustrator 19.0.0, SVG Export Plug-In . SVG Version: 6.00 Build 0)  -->
<svg version="1.1" id="Layer_1" xmlns="http://www.w3.org/2000/svg" xmlns:xlink="http://www.w3.org/1999/xlink" x="0px" y="0px"
	 viewBox="0 0 512 512" style="enable-background:new 0 0 512 512;" xml:space="preserve">
<path style="fill:#5D9CEC;" d="M511.996,256c0,141.375-114.594,256-255.992,256c-141.391,0-256-114.625-256-256
	c0-141.391,114.609-256,256-256C397.402,0,511.996,114.609,511.996,256z"/>
<g>
	<path style="fill:#4A89DC;" d="M288.004,128H34.254c-4,6.906-7.688,14.031-11.031,21.328h264.781
		c5.891,0,10.672-4.781,10.672-10.672S293.895,128,288.004,128z"/>
	<path style="fill:#4A89DC;" d="M463.965,405.328H266.676c-5.891,0-10.672,4.781-10.672,10.672s4.781,10.656,10.672,10.656h180.133
		C452.902,419.875,458.621,412.75,463.965,405.328z"/>
	<path style="fill:#4A89DC;" d="M149.332,341.328H14.566c2.578,7.266,5.469,14.391,8.656,21.328h126.109
		c5.891,0,10.672-4.766,10.672-10.656S155.223,341.328,149.332,341.328z"/>
	<path style="fill:#4A89DC;" d="M362.676,266.656c0,5.891,4.766,10.672,10.656,10.672h137.789
		c0.594-7.031,0.875-14.141,0.875-21.328H373.332C367.441,256,362.676,260.766,362.676,266.656z"/>
	<path style="fill:#4A89DC;" d="M74.676,245.328c0-5.891-4.781-10.672-10.672-10.672H0.879C0.301,241.703,0.004,248.812,0.004,256
		h64C69.895,256,74.676,251.219,74.676,245.328z"/>
	<path style="fill:#4A89DC;" d="M181.332,64c5.891,0,10.672-4.781,10.672-10.672s-4.781-10.672-10.672-10.672h-66.875
		C104.707,49.141,95.426,56.281,86.676,64H181.332z"/>
	<path style="fill:#4A89DC;" d="M341.332,266.656c0,17.688-28.641,32-64,32c-35.344,0-64-14.312-64-32c0-17.672,28.656-32,64-32
		C312.691,234.656,341.332,248.984,341.332,266.656z"/>
</g>
<g>
</g>
<g>
</g>
<g>
</g>
<g>
</g>
<g>
</g>
<g>
</g>
<g>
</g>
<g>
</g>
<g>
</g>
<g>
</g>
<g>
</g>
<g>
</g>
<g>
</g>
<g>
</g>
<g>
</g>
</svg>
