<?xml version="1.0" encoding="iso-8859-1"?>
<!-- Generator: Adobe Illustrator 19.0.0, SVG Export Plug-In . SVG Version: 6.00 Build 0)  -->
<svg version="1.1" id="Layer_1" xmlns="http://www.w3.org/2000/svg" xmlns:xlink="http://www.w3.org/1999/xlink" x="0px" y="0px"
	 viewBox="0 0 351.28 351.28" style="enable-background:new 0 0 351.28 351.28;" xml:space="preserve">
<g>
	<path style="fill:#EAC16E;" d="M167.12,346.07C76.84,341.63,5,267.02,5,175.64C5,85.8,74.42,12.19,162.53,5.5
		c4.33-0.33,8.7-0.5,13.11-0.5c38.41,0,73.85,12.69,102.37,34.1c41.45,31.13,68.27,80.7,68.27,136.54
		c0,47.75-19.61,90.91-51.22,121.88c-30.77,30.16-72.93,48.76-119.42,48.76C172.78,346.28,169.94,346.21,167.12,346.07z"/>
	<path style="fill:#EFD4A5;" d="M237.298,211.994c0,0,49.185-32.578,74.465,8.358s-10.354,99.25-117.033,101.101
		c-77.838-72.973-64.459-139.864-18.243-153.243S237.298,211.994,237.298,211.994"/>
	<path style="fill:#333333;" d="M237.294,216.996c-2.23,0-4.264-1.503-4.841-3.764c-0.023-0.091-2.565-9.793-8.647-19.819
		c-1.433-2.361-0.68-5.436,1.681-6.868c2.362-1.433,5.438-0.679,6.868,1.682c6.888,11.353,9.673,22.081,9.788,22.532
		c0.683,2.676-0.933,5.398-3.607,6.082C238.12,216.945,237.703,216.996,237.294,216.996z"/>
	<path style="fill:#333333;" d="M159.326,181.729c-1.512,0-3.005-0.683-3.988-1.979c-1.668-2.2-1.237-5.336,0.963-7.005
		c5.514-4.181,11.838-7.322,18.796-9.336c16.217-4.694,30.648-2.038,42.902,7.897c2.146,1.739,2.475,4.888,0.735,7.033
		c-1.739,2.146-4.89,2.473-7.032,0.735c-9.561-7.751-20.941-9.79-33.824-6.059c-5.776,1.672-11.003,4.262-15.534,7.699
		C161.441,181.397,160.379,181.729,159.326,181.729z"/>
	<path style="fill:#333333;" d="M143.542,202.273c-0.642,0-1.293-0.124-1.921-0.386c-2.549-1.062-3.755-3.989-2.692-6.539
		c1.033-2.479,2.242-4.889,3.593-7.161c1.41-2.373,4.478-3.153,6.854-1.743c2.373,1.411,3.153,4.479,1.742,6.853
		c-1.11,1.868-2.105,3.852-2.958,5.897C147.36,201.115,145.5,202.273,143.542,202.273z"/>
	<path style="fill:#333333;" d="M194.731,326.454c-1.27,0-2.492-0.483-3.42-1.353c-53.414-50.075-58.63-90.668-56.985-110.408
		c0.229-2.752,2.647-4.797,5.397-4.568c2.752,0.229,4.797,2.646,4.567,5.398c-2.509,30.117,16.565,66.807,52.384,100.889
		c7.299-0.179,14.426-0.636,21.215-1.361c2.75-0.297,5.21,1.696,5.503,4.441c0.293,2.746-1.695,5.209-4.44,5.502
		c-7.712,0.824-15.831,1.314-24.134,1.458C194.788,326.453,194.759,326.454,194.731,326.454z"/>
	<path style="fill:#333333;" d="M238.639,321.924c-2.328,0-4.412-1.634-4.895-4.003c-0.551-2.706,1.195-5.346,3.901-5.897
		c36.747-7.487,63.378-24.621,73.063-47.01c6.046-13.975,4.909-28.903-3.199-42.035c-5.838-9.453-13.571-15.301-22.985-17.381
		c-21.057-4.652-44.239,10.416-44.471,10.568c-2.306,1.52-5.405,0.884-6.925-1.417c-1.521-2.302-0.893-5.399,1.408-6.923
		c1.084-0.72,26.879-17.544,52.091-12.004c12.179,2.676,22.067,10.045,29.39,21.903c9.877,15.993,11.251,34.197,3.869,51.259
		c-11.002,25.431-40.25,44.689-80.245,52.838C239.305,321.891,238.969,321.924,238.639,321.924z"/>
	<path style="opacity:0.25;enable-background:new    ;" d="M190.246,336.993c-19.96-7.05-38.22-17.72-53.98-31.21
		c-36.59-31.3-59.78-77.8-59.78-129.72c0-46.04,18.24-87.83,47.88-118.52c16.33-16.91,36.12-30.46,58.23-39.5
		c9.22-3.765,18.846-6.738,28.788-8.857c-11.529-2.458-23.483-3.763-35.745-3.763c-22.84,0-44.62,4.49-64.53,12.62
		c-22.11,9.04-41.9,22.59-58.23,39.5c-29.64,30.69-47.88,72.48-47.88,118.52c0,51.92,23.19,98.42,59.78,129.72
		c15.76,13.49,34.02,24.16,53.98,31.21c17.79,6.29,36.94,9.71,56.88,9.71c12.255,0,24.208-1.3,35.734-3.756
		C204.152,341.407,197.097,339.416,190.246,336.993z"/>
	<g>
		<path style="fill:#FFFFFF;" d="M250.336,52.602c-0.906,0-1.824-0.246-2.649-0.763c-5.902-3.697-12.117-6.994-18.473-9.799
			c-2.525-1.115-3.67-4.067-2.555-6.593c1.115-2.525,4.063-3.671,6.594-2.555c6.792,2.998,13.435,6.522,19.742,10.473
			c2.34,1.466,3.049,4.551,1.583,6.892C253.629,51.771,252.001,52.602,250.336,52.602z"/>
		<path style="fill:#FFFFFF;" d="M273.434,290.345c-1.336,0-2.668-0.532-3.652-1.584c-1.887-2.017-1.781-5.181,0.235-7.067
			c29.375-27.482,46.223-66.239,46.223-106.333c0-40.324-16.17-77.856-45.532-105.684c-2.004-1.899-2.089-5.064-0.189-7.068
			c1.898-2.004,5.064-2.089,7.068-0.189c31.375,29.735,48.653,69.845,48.653,112.942c0,42.851-18.002,84.27-49.391,113.636
			C275.885,289.898,274.657,290.345,273.434,290.345z"/>
		<path style="fill:#FFFFFF;" d="M252.403,306.807c-1.637,0-3.241-0.803-4.199-2.278c-1.503-2.316-0.845-5.413,1.472-6.916
			c2.545-1.652,5.077-3.411,7.524-5.227c2.218-1.646,5.35-1.182,6.995,1.036c1.646,2.218,1.182,5.35-1.036,6.995
			c-2.615,1.94-5.319,3.819-8.038,5.584C254.28,306.546,253.335,306.807,252.403,306.807z"/>
	</g>
	<path style="fill:#333333;" d="M175.64,351.28c-2.932,0-5.881-0.073-8.766-0.216l0,0C73.3,346.462,0,269.406,0,175.64
		c0-44.566,16.715-87.062,47.064-119.658C77.254,23.556,118.127,3.857,162.15,0.515C166.628,0.173,171.166,0,175.64,0
		c38.345,0,74.782,12.138,105.372,35.101c21.339,16.026,39.019,37.025,51.129,60.728c12.699,24.855,19.139,51.708,19.139,79.811
		c0,47.59-18.724,92.143-52.721,125.452C265.54,333.456,221.887,351.28,175.64,351.28z M175.64,10c-4.221,0-8.504,0.164-12.73,0.485
		c-41.512,3.152-80.053,21.729-108.526,52.311C25.762,93.535,10,133.611,10,175.64c0,88.428,69.123,161.097,157.365,165.436h0.002
		c2.722,0.135,5.505,0.204,8.272,0.204c43.613,0,84.781-16.809,115.92-47.331c32.063-31.413,49.72-73.429,49.72-118.31
		c0-26.506-6.07-51.828-18.043-75.261c-11.423-22.355-28.1-42.163-48.229-57.281C246.163,21.445,211.802,10,175.64,10z"/>
</g>
<g>
</g>
<g>
</g>
<g>
</g>
<g>
</g>
<g>
</g>
<g>
</g>
<g>
</g>
<g>
</g>
<g>
</g>
<g>
</g>
<g>
</g>
<g>
</g>
<g>
</g>
<g>
</g>
<g>
</g>
</svg>
