<?xml version="1.0" encoding="iso-8859-1"?>
<!-- Generator: Adobe Illustrator 19.0.0, SVG Export Plug-In . SVG Version: 6.00 Build 0)  -->
<svg version="1.1" id="Layer_1" xmlns="http://www.w3.org/2000/svg" xmlns:xlink="http://www.w3.org/1999/xlink" x="0px" y="0px"
	 viewBox="0 0 512 512" style="enable-background:new 0 0 512 512;" xml:space="preserve">
<path style="fill:#FFCE54;" d="M512,255.998c0,141.375-114.625,256-256.005,256C114.605,511.998,0,397.373,0,255.998
	C0,114.608,114.605,0.002,255.995,0.002C397.375,0.002,512,114.608,512,255.998z"/>
<g>
	<path style="fill:#F6BB42;" d="M68.433,81.767c3.485,3.562,32.61,32.043,99.048,60.375c40.327,17.188,86.356,30.875,136.779,40.668
		c61.153,11.889,129.02,18.062,201.836,18.389c-1.566-7.25-3.441-14.375-5.625-21.375c-68.788-0.591-132.903-6.529-190.76-17.683
		c-48.798-9.394-93.278-22.486-132.201-38.923c-34.577-14.596-58.279-29.188-72.077-38.841
		C90.591,73.983,83.73,66.906,83.591,66.752c-0.111,0.091-0.207,0.188-0.312,0.293l-7.312,6.957
		C73.404,76.531,70.89,79.127,68.433,81.767z"/>
	<path style="fill:#F6BB42;" d="M329.395,290.324c61.01,13.02,117.48,30.125,168.076,50.895c2.337-6.701,4.434-13.549,6.25-20.49
		c-51.288-20.924-108.346-38.135-169.885-51.26c-53.125-11.332-109.687-19.645-168.105-24.707
		c-82.221-7.139-145.375-5.75-165.23-5.029C0.168,245.108,0,250.526,0,255.998c0,1.702,0.015,3.403,0.043,5.096
		c17.548-0.674,80.625-2.299,163.842,4.924C221.433,270.998,277.12,279.18,329.395,290.324z"/>
	<path style="fill:#F6BB42;" d="M306.697,418.479c-38.674-3.779-79.312-4.559-120.812-2.346
		c-60.438,3.25-104.342,11.816-117.058,14.518c5.933,6.348,12.183,12.395,18.716,18.107c20-3.588,55.688-9,99.952-11.338
		c40.375-2.145,79.875-1.365,117.418,2.309c37.597,3.691,73.27,10.316,106.433,19.73c6.779-5.154,13.25-10.654,19.434-16.451
		C392.529,431.045,350.855,422.775,306.697,418.479z"/>
</g>
<g>
</g>
<g>
</g>
<g>
</g>
<g>
</g>
<g>
</g>
<g>
</g>
<g>
</g>
<g>
</g>
<g>
</g>
<g>
</g>
<g>
</g>
<g>
</g>
<g>
</g>
<g>
</g>
<g>
</g>
</svg>
